<svg xmlns="http://www.w3.org/2000/svg" width="72.167" height="72.167" viewBox="0 0 72.167 72.167">
  <g id="Group_12495" data-name="Group 12495" transform="translate(-780 -3148.993)">
    <g id="Path_8548" data-name="Path 8548" transform="translate(780 3148.993)" fill="none">
      <path d="M36.083,0A36.083,36.083,0,1,1,0,36.083,36.083,36.083,0,0,1,36.083,0Z" stroke="none"/>
      <path d="M 36.08349609375 1.999992370605469 C 31.48137283325195 1.999992370605469 27.01797485351562 2.900886535644531 22.8172721862793 4.677627563476562 C 18.75887298583984 6.394187927246094 15.11363983154297 8.852008819580078 11.98281860351562 11.98281860351562 C 8.852008819580078 15.11363983154297 6.394187927246094 18.75887298583984 4.677627563476562 22.8172721862793 C 2.900886535644531 27.01797485351562 1.999992370605469 31.48137283325195 1.999992370605469 36.08349609375 C 1.999992370605469 40.68561553955078 2.900886535644531 45.14901733398438 4.677627563476562 49.34971618652344 C 6.394187927246094 53.40811920166016 8.852008819580078 57.05335235595703 11.98281860351562 60.18417358398438 C 15.11363983154297 63.31498718261719 18.75887298583984 65.77280426025391 22.8172721862793 67.48936462402344 C 27.01797485351562 69.26610565185547 31.48137283325195 70.16699981689453 36.08349609375 70.16699981689453 C 40.68561553955078 70.16699981689453 45.14901733398438 69.26610565185547 49.34971618652344 67.48936462402344 C 53.40811920166016 65.77280426025391 57.05335235595703 63.31498718261719 60.18417358398438 60.18417358398438 C 63.31498718261719 57.05335235595703 65.77280426025391 53.40811920166016 67.48936462402344 49.34971618652344 C 69.26610565185547 45.14901733398438 70.16699981689453 40.68561553955078 70.16699981689453 36.08349609375 C 70.16699981689453 31.48137283325195 69.26610565185547 27.01797485351562 67.48936462402344 22.8172721862793 C 65.77280426025391 18.75887298583984 63.31498718261719 15.11363983154297 60.18417358398438 11.98281860351562 C 57.05335235595703 8.852008819580078 53.40811920166016 6.394187927246094 49.34971618652344 4.677627563476562 C 45.14901733398438 2.900886535644531 40.68561553955078 1.999992370605469 36.08349609375 1.999992370605469 M 36.08349609375 -7.62939453125e-06 C 56.01186370849609 -7.62939453125e-06 72.16699981689453 16.15512847900391 72.16699981689453 36.08349609375 C 72.16699981689453 56.01186370849609 56.01186370849609 72.16699981689453 36.08349609375 72.16699981689453 C 16.15512847900391 72.16699981689453 -7.62939453125e-06 56.01186370849609 -7.62939453125e-06 36.08349609375 C -7.62939453125e-06 16.15512847900391 16.15512847900391 -7.62939453125e-06 36.08349609375 -7.62939453125e-06 Z" stroke="none" fill="#fb5012"/>
    </g>
    <g id="work-schedule" transform="translate(799.745 3168.738)">
      <path id="Path_8572" data-name="Path 8572" d="M29.14,6H28.116v.512a1.536,1.536,0,1,1-3.072,0V6H23v.512a1.536,1.536,0,0,1-3.072,0V6H17.874v.512a1.536,1.536,0,1,1-3.072,0V6H12.754v.512a1.536,1.536,0,1,1-3.072,0V6H7.633v.512a1.536,1.536,0,1,1-3.072,0V6H3.536A1.536,1.536,0,0,0,2,7.536V9.072H30.676V7.536A1.536,1.536,0,0,0,29.14,6Z" transform="translate(0 -1.952)" fill="#800020"/>
      <path id="Path_8573" data-name="Path 8573" d="M2,35a1.536,1.536,0,0,0,1.536,1.536h25.6A1.536,1.536,0,0,0,30.676,35V14H2ZM9.991,18.619l-.672-.672a.512.512,0,1,1,.724-.724l1.536,1.536a.512.512,0,0,1,0,.724l-1.536,1.536a.512.512,0,1,1-.724-.724l.651-.651a5.629,5.629,0,1,0,5.856,5.622,6.657,6.657,0,1,1,6.859,6.647l.672.672a.512.512,0,1,1-.724.724L21.1,31.773a.512.512,0,0,1,0-.724l1.536-1.536a.512.512,0,1,1,.724.724l-.651.651a5.629,5.629,0,1,0-5.856-5.622,6.657,6.657,0,1,1-6.859-6.647Z" transform="translate(0 -5.855)" fill="#fb5012"/>
      <path id="Path_8574" data-name="Path 8574" d="M50.024,4.56V2.512a.512.512,0,0,0-1.024,0V4.56a.512.512,0,0,0,1.024,0Z" transform="translate(-22.932)" fill="#800020"/>
      <path id="Path_8575" data-name="Path 8575" d="M40.024,4.56V2.512a.512.512,0,0,0-1.024,0V4.56a.512.512,0,0,0,1.024,0Z" transform="translate(-18.053)" fill="#800020"/>
      <path id="Path_8576" data-name="Path 8576" d="M10.024,4.56V2.512A.512.512,0,1,0,9,2.512V4.56a.512.512,0,1,0,1.024,0Z" transform="translate(-3.415)" fill="#800020"/>
      <path id="Path_8577" data-name="Path 8577" d="M20.024,4.56V2.512a.512.512,0,1,0-1.024,0V4.56a.512.512,0,1,0,1.024,0Z" transform="translate(-8.295)" fill="#800020"/>
      <path id="Path_8578" data-name="Path 8578" d="M30.024,4.56V2.512a.512.512,0,0,0-1.024,0V4.56a.512.512,0,0,0,1.024,0Z" transform="translate(-13.174)" fill="#800020"/>
    </g>
  </g>
</svg>
