<svg xmlns="http://www.w3.org/2000/svg" width="72.167" height="72.167" viewBox="0 0 72.167 72.167">
  <g id="Group_12530" data-name="Group 12530" transform="translate(-778 -5748.9)">
    <g id="Path_8501" data-name="Path 8501" transform="translate(778 5748.9)" fill="none">
      <path d="M36.083,0A36.083,36.083,0,1,1,0,36.083,36.083,36.083,0,0,1,36.083,0Z" stroke="none"/>
      <path d="M 36.08349609375 1.999992370605469 C 31.48137283325195 1.999992370605469 27.01797485351562 2.900886535644531 22.8172721862793 4.677627563476562 C 18.75887298583984 6.394187927246094 15.11363983154297 8.852008819580078 11.98281860351562 11.98281860351562 C 8.852008819580078 15.11363983154297 6.394187927246094 18.75887298583984 4.677627563476562 22.8172721862793 C 2.900886535644531 27.01797485351562 1.999992370605469 31.48137283325195 1.999992370605469 36.08349609375 C 1.999992370605469 40.68561553955078 2.900886535644531 45.14901733398438 4.677627563476562 49.34971618652344 C 6.394187927246094 53.40811920166016 8.852008819580078 57.05335235595703 11.98281860351562 60.18417358398438 C 15.11363983154297 63.31498718261719 18.75887298583984 65.77280426025391 22.8172721862793 67.48936462402344 C 27.01797485351562 69.26610565185547 31.48137283325195 70.16699981689453 36.08349609375 70.16699981689453 C 40.68561553955078 70.16699981689453 45.14901733398438 69.26610565185547 49.34971618652344 67.48936462402344 C 53.40811920166016 65.77280426025391 57.05335235595703 63.31498718261719 60.18417358398438 60.18417358398438 C 63.31498718261719 57.05335235595703 65.77280426025391 53.40811920166016 67.48936462402344 49.34971618652344 C 69.26610565185547 45.14901733398438 70.16699981689453 40.68561553955078 70.16699981689453 36.08349609375 C 70.16699981689453 31.48137283325195 69.26610565185547 27.01797485351562 67.48936462402344 22.8172721862793 C 65.77280426025391 18.75887298583984 63.31498718261719 15.11363983154297 60.18417358398438 11.98281860351562 C 57.05335235595703 8.852008819580078 53.40811920166016 6.394187927246094 49.34971618652344 4.677627563476562 C 45.14901733398438 2.900886535644531 40.68561553955078 1.999992370605469 36.08349609375 1.999992370605469 M 36.08349609375 -7.62939453125e-06 C 56.01186370849609 -7.62939453125e-06 72.16699981689453 16.15512847900391 72.16699981689453 36.08349609375 C 72.16699981689453 56.01186370849609 56.01186370849609 72.16699981689453 36.08349609375 72.16699981689453 C 16.15512847900391 72.16699981689453 -7.62939453125e-06 56.01186370849609 -7.62939453125e-06 36.08349609375 C -7.62939453125e-06 16.15512847900391 16.15512847900391 -7.62939453125e-06 36.08349609375 -7.62939453125e-06 Z" stroke="none" fill="#fb5012"/>
    </g>
    <g id="developing" transform="translate(793.201 5763.793)">
      <path id="Path_8502" data-name="Path 8502" d="M5.8,43.04h.737V53.523H9.008V43.04h.737l-1.97-3.153Z" transform="translate(-1.075 -14.141)" fill="#800020"/>
      <path id="Path_8503" data-name="Path 8503" d="M52.542,17.523h2.467V7.04h.737l-1.97-3.153L51.805,7.04h.737Z" transform="translate(-18.71 -0.34)" fill="#800020"/>
      <path id="Path_8504" data-name="Path 8504" d="M32.116,28.458A10.814,10.814,0,0,0,25.616,9h-1.8a10.814,10.814,0,0,0-6.5,19.458V25.649h2.467v4.244l.617.308v2.231h3.083v-5.55h2.467v5.55h3.083V30.2l.617-.308V20.716h2.467ZM30.882,18.249a2.44,2.44,0,0,1-1.246-.349l-2.8,2.8a2.44,2.44,0,0,1,.349,1.246,2.462,2.462,0,0,1-4.846.617H19.612a1.233,1.233,0,1,1,0-1.233h2.725a2.44,2.44,0,0,1,3.625-1.5l2.8-2.8a2.44,2.44,0,0,1-.349-1.246,2.467,2.467,0,1,1,2.467,2.467Z" transform="translate(-3.834 -2.3)" fill="#fb5012"/>
      <path id="Path_8505" data-name="Path 8505" d="M28,49h4.933v1.233H28Z" transform="translate(-9.584 -17.635)" fill="#fb5012"/>
      <path id="Path_8506" data-name="Path 8506" d="M25.617,53H25v.617a4.316,4.316,0,1,0,8.633,0V53H25.617Z" transform="translate(-8.434 -19.169)" fill="#fb5012"/>
      <path id="Path_8507" data-name="Path 8507" d="M4.3,14.76,6.039,16.5l.028-.028a1.8,1.8,0,0,1,1.959-.39A11.941,11.941,0,0,1,8.4,14.223,4.313,4.313,0,1,1,13.48,7.385a11.973,11.973,0,0,1,2.979-1.39l-1.7-1.7-.028.028a1.822,1.822,0,0,1-3.1-1.284V3H9.166v.039a1.822,1.822,0,0,1-3.1,1.284L6.039,4.3,4.3,6.039l.028.028a1.822,1.822,0,0,1-1.284,3.1H3v2.467h.039a1.822,1.822,0,0,1,1.283,3.1Z" transform="translate(0 0)" fill="#800020"/>
      <path id="Path_8508" data-name="Path 8508" d="M14.98,12.4a1.824,1.824,0,0,0-1.13-.4,1.849,1.849,0,0,0-1.071,3.356A12.112,12.112,0,0,1,14.98,12.4Z" transform="translate(-3.45 -3.45)" fill="#800020"/>
      <path id="Path_8509" data-name="Path 8509" d="M51.165,38.271a2.976,2.976,0,0,1,.1-2.515l-1.922-1.922a2.969,2.969,0,0,1-2.214.208,11.966,11.966,0,0,1-.867,1.658,6.164,6.164,0,1,1-5.6,10.959,5.53,5.53,0,0,1-.488,1.919,3,3,0,0,1,.532.158,2.966,2.966,0,0,1,1.7,1.85h2.717a3,3,0,0,1,4.22-1.748l1.923-1.922A3,3,0,0,1,53.017,42.7V39.978a2.979,2.979,0,0,1-1.852-1.707Z" transform="translate(-14.251 -11.821)" fill="#800020"/>
      <path id="Path_8510" data-name="Path 8510" d="M41.349,42.641l-.551.532v1.212a1.225,1.225,0,0,1-.324.826,3.7,3.7,0,1,0,4.3-5.032,12.077,12.077,0,0,1-3.237,2.368Z" transform="translate(-14.366 -14.253)" fill="#800020"/>
      <circle id="Ellipse_316" data-name="Ellipse 316" cx="0.585" cy="0.585" r="0.585" transform="translate(20.552 19.382)" fill="#800020"/>
      <circle id="Ellipse_317" data-name="Ellipse 317" cx="0.585" cy="0.585" r="0.585" transform="translate(26.402 12.361)" fill="#800020"/>
    </g>
  </g>
</svg>
