<svg xmlns="http://www.w3.org/2000/svg" width="72.167" height="72.167" viewBox="0 0 72.167 72.167">
  <g id="Group_13149" data-name="Group 13149" transform="translate(-778 -6531.647)">
    <g id="Group_12525" data-name="Group 12525" transform="translate(0 459.175)">
      <g id="Path_8533" data-name="Path 8533" transform="translate(778 6072.472)" fill="none">
        <path d="M36.083,0A36.083,36.083,0,1,1,0,36.083,36.083,36.083,0,0,1,36.083,0Z" stroke="none"/>
        <path d="M 36.08349609375 1.999992370605469 C 31.48137283325195 1.999992370605469 27.01797485351562 2.900886535644531 22.8172721862793 4.677627563476562 C 18.75887298583984 6.394187927246094 15.11363983154297 8.852008819580078 11.98281860351562 11.98281860351562 C 8.852008819580078 15.11363983154297 6.394187927246094 18.75887298583984 4.677627563476562 22.8172721862793 C 2.900886535644531 27.01797485351562 1.999992370605469 31.48137283325195 1.999992370605469 36.08349609375 C 1.999992370605469 40.68561553955078 2.900886535644531 45.14901733398438 4.677627563476562 49.34971618652344 C 6.394187927246094 53.40811920166016 8.852008819580078 57.05335235595703 11.98281860351562 60.18417358398438 C 15.11363983154297 63.31498718261719 18.75887298583984 65.77280426025391 22.8172721862793 67.48936462402344 C 27.01797485351562 69.26610565185547 31.48137283325195 70.16699981689453 36.08349609375 70.16699981689453 C 40.68561553955078 70.16699981689453 45.14901733398438 69.26610565185547 49.34971618652344 67.48936462402344 C 53.40811920166016 65.77280426025391 57.05335235595703 63.31498718261719 60.18417358398438 60.18417358398438 C 63.31498718261719 57.05335235595703 65.77280426025391 53.40811920166016 67.48936462402344 49.34971618652344 C 69.26610565185547 45.14901733398438 70.16699981689453 40.68561553955078 70.16699981689453 36.08349609375 C 70.16699981689453 31.48137283325195 69.26610565185547 27.01797485351562 67.48936462402344 22.8172721862793 C 65.77280426025391 18.75887298583984 63.31498718261719 15.11363983154297 60.18417358398438 11.98281860351562 C 57.05335235595703 8.852008819580078 53.40811920166016 6.394187927246094 49.34971618652344 4.677627563476562 C 45.14901733398438 2.900886535644531 40.68561553955078 1.999992370605469 36.08349609375 1.999992370605469 M 36.08349609375 -7.62939453125e-06 C 56.01186370849609 -7.62939453125e-06 72.16699981689453 16.15512847900391 72.16699981689453 36.08349609375 C 72.16699981689453 56.01186370849609 56.01186370849609 72.16699981689453 36.08349609375 72.16699981689453 C 16.15512847900391 72.16699981689453 -7.62939453125e-06 56.01186370849609 -7.62939453125e-06 36.08349609375 C -7.62939453125e-06 16.15512847900391 16.15512847900391 -7.62939453125e-06 36.08349609375 -7.62939453125e-06 Z" stroke="none" fill="#fb5012"/>
      </g>
    </g>
    <g id="money-bag_1_" data-name="money-bag (1)" transform="translate(797.857 6551.504)">
      <path id="Path_8968" data-name="Path 8968" d="M12.423,174.818A22.535,22.535,0,0,0,19.14,174a3.258,3.258,0,0,1,.945-2.986,3.31,3.31,0,0,1,0-4.754,3.31,3.31,0,0,1,0-4.754,3.3,3.3,0,0,1,.363-5.053,13.482,13.482,0,0,0-1.8-1.39,1.863,1.863,0,0,0,.435-1.163,1.9,1.9,0,0,0-1.9-1.9H7.67a1.9,1.9,0,0,0-1.9,1.9,1.863,1.863,0,0,0,.433,1.16,13.608,13.608,0,0,0-6.2,11.2c0,7.67,7.117,8.557,12.423,8.557Zm-.01-9.229a2.845,2.845,0,0,1-.941-5.532v-1.4a.951.951,0,1,1,1.9,0v1.408a2.848,2.848,0,0,1,1.891,2.674.951.951,0,1,1-1.9,0,.951.951,0,1,0-.951.951,2.845,2.845,0,0,1,.961,5.526v.85a.951.951,0,1,1-1.9,0v-.844a2.847,2.847,0,0,1-1.912-2.68.951.951,0,1,1,1.9,0,.951.951,0,1,0,.951-.951Zm0,0" transform="translate(0 -142.366)" fill="#800020"/>
      <path id="Path_8969" data-name="Path 8969" d="M341.046,467h-8.62a1.426,1.426,0,1,0,0,2.852h8.62a1.426,1.426,0,1,0,0-2.852Zm0,0" transform="translate(-310.02 -437.4)" fill="#800020"/>
      <path id="Path_8970" data-name="Path 8970" d="M341.046,392h-8.62a1.426,1.426,0,1,0,0,2.852h8.62a1.426,1.426,0,1,0,0-2.852Zm0,0" transform="translate(-310.02 -367.154)" fill="#fb5012"/>
      <path id="Path_8971" data-name="Path 8971" d="M341.046,317h-8.62a1.426,1.426,0,1,0,0,2.852h8.62a1.426,1.426,0,1,0,0-2.852Zm0,0" transform="translate(-310.02 -296.908)" fill="#800020"/>
      <path id="Path_8972" data-name="Path 8972" d="M341.046,242h-8.62a1.426,1.426,0,1,0,0,2.852h8.62a1.426,1.426,0,1,0,0-2.852Zm0,0" transform="translate(-310.02 -226.661)" fill="#fb5012"/>
      <path id="Path_8973" data-name="Path 8973" d="M100.332,1.9a2.844,2.844,0,0,0-5.367,0H91.95a.95.95,0,0,0-.9,1.252l1.484,4.58h10.243l1.484-4.58a.95.95,0,0,0-.9-1.252Zm0,0" transform="translate(-85.231)" fill="#800020"/>
    </g>
  </g>
</svg>
