<svg xmlns="http://www.w3.org/2000/svg" width="72.167" height="72.167" viewBox="0 0 72.167 72.167">
  <g id="Group_12493" data-name="Group 12493" transform="translate(-780 -3044.993)">
    <g id="Path_8547" data-name="Path 8547" transform="translate(780 3044.993)" fill="none">
      <path d="M36.083,0A36.083,36.083,0,1,1,0,36.083,36.083,36.083,0,0,1,36.083,0Z" stroke="none"/>
      <path d="M 36.08349609375 1.999992370605469 C 31.48137283325195 1.999992370605469 27.01797485351562 2.900886535644531 22.8172721862793 4.677627563476562 C 18.75887298583984 6.394187927246094 15.11363983154297 8.852008819580078 11.98281860351562 11.98281860351562 C 8.852008819580078 15.11363983154297 6.394187927246094 18.75887298583984 4.677627563476562 22.8172721862793 C 2.900886535644531 27.01797485351562 1.999992370605469 31.48137283325195 1.999992370605469 36.08349609375 C 1.999992370605469 40.68561553955078 2.900886535644531 45.14901733398438 4.677627563476562 49.34971618652344 C 6.394187927246094 53.40811920166016 8.852008819580078 57.05335235595703 11.98281860351562 60.18417358398438 C 15.11363983154297 63.31498718261719 18.75887298583984 65.77280426025391 22.8172721862793 67.48936462402344 C 27.01797485351562 69.26610565185547 31.48137283325195 70.16699981689453 36.08349609375 70.16699981689453 C 40.68561553955078 70.16699981689453 45.14901733398438 69.26610565185547 49.34971618652344 67.48936462402344 C 53.40811920166016 65.77280426025391 57.05335235595703 63.31498718261719 60.18417358398438 60.18417358398438 C 63.31498718261719 57.05335235595703 65.77280426025391 53.40811920166016 67.48936462402344 49.34971618652344 C 69.26610565185547 45.14901733398438 70.16699981689453 40.68561553955078 70.16699981689453 36.08349609375 C 70.16699981689453 31.48137283325195 69.26610565185547 27.01797485351562 67.48936462402344 22.8172721862793 C 65.77280426025391 18.75887298583984 63.31498718261719 15.11363983154297 60.18417358398438 11.98281860351562 C 57.05335235595703 8.852008819580078 53.40811920166016 6.394187927246094 49.34971618652344 4.677627563476562 C 45.14901733398438 2.900886535644531 40.68561553955078 1.999992370605469 36.08349609375 1.999992370605469 M 36.08349609375 -7.62939453125e-06 C 56.01186370849609 -7.62939453125e-06 72.16699981689453 16.15512847900391 72.16699981689453 36.08349609375 C 72.16699981689453 56.01186370849609 56.01186370849609 72.16699981689453 36.08349609375 72.16699981689453 C 16.15512847900391 72.16699981689453 -7.62939453125e-06 56.01186370849609 -7.62939453125e-06 36.08349609375 C -7.62939453125e-06 16.15512847900391 16.15512847900391 -7.62939453125e-06 36.08349609375 -7.62939453125e-06 Z" stroke="none" fill="#fb5012"/>
    </g>
    <g id="save-money_1_" data-name="save-money (1)" transform="translate(798.533 3060.622)">
      <path id="Path_8566" data-name="Path 8566" d="M104.008,129.252a8.76,8.76,0,1,0,8.76-8.76A8.76,8.76,0,0,0,104.008,129.252Zm8.76.554a2.878,2.878,0,0,1-.731-5.667V123.4a.607.607,0,1,1,1.214,0v.7a2.85,2.85,0,0,1,2.374,2.828.6.6,0,1,1-1.2,0,1.66,1.66,0,1,0-1.658,1.662,2.874,2.874,0,0,1,.484,5.7v.724a.607.607,0,0,1-1.214,0v-.761a2.906,2.906,0,0,1-2.164-2.791.614.614,0,0,1,1.228,0,1.665,1.665,0,0,0,1.484,1.651.63.63,0,0,1,.095-.008.613.613,0,0,1,.136.016,1.661,1.661,0,0,0-.048-3.321Zm0,0" transform="translate(-94.66 -110.043)" fill="#fb5012"/>
      <path id="Path_8567" data-name="Path 8567" d="M90.515,353.447l-.014.007-5.635,2.662a4.355,4.355,0,0,1,.079.947.607.607,0,0,1-.606.59h-.017l-8.247-.227a.607.607,0,0,1,.033-1.214l7.581.209a3.13,3.13,0,0,0-2.994-2.6l-5.017-.138a6.6,6.6,0,0,1-2.843-.734l-.511-.264a7.712,7.712,0,0,0-7.873.443l-.2,7.3.862-.462a3.749,3.749,0,0,1,2.8-.306l8.514,2.39a7.952,7.952,0,0,0,4.873-.545l11.8-7.63a2.206,2.206,0,0,0-2.575-.427Zm0,0" transform="translate(-58.35 -321.302)" fill="#800020"/>
      <path id="Path_8568" data-name="Path 8568" d="M.359,351.41l.3-10.859,4.288.118-.3,10.859Zm0,0" transform="translate(0 -311.018)" fill="#fb5012"/>
      <path id="Path_8569" data-name="Path 8569" d="M198.8,7.2V.607a.607.607,0,1,0-1.214,0V7.2a.607.607,0,0,0,1.214,0Zm0,0" transform="translate(-180.123)" fill="#800020"/>
      <path id="Path_8570" data-name="Path 8570" d="M258.8,43.729V40.607a.607.607,0,1,0-1.214,0v3.122a.607.607,0,0,0,1.214,0Zm0,0" transform="translate(-234.919 -36.531)" fill="#800020"/>
      <path id="Path_8571" data-name="Path 8571" d="M138.8,43.729V40.607a.607.607,0,0,0-1.214,0v3.122a.607.607,0,0,0,1.214,0Zm0,0" transform="translate(-125.326 -36.531)" fill="#800020"/>
    </g>
  </g>
</svg>
