<svg xmlns="http://www.w3.org/2000/svg" width="72.167" height="72.167" viewBox="0 0 72.167 72.167">
  <g id="Group_12494" data-name="Group 12494" transform="translate(-167 -3252.993)">
    <g id="Path_8544" data-name="Path 8544" transform="translate(167 3252.993)" fill="none">
      <path d="M36.083,0A36.083,36.083,0,1,1,0,36.083,36.083,36.083,0,0,1,36.083,0Z" stroke="none"/>
      <path d="M 36.08349609375 1.999992370605469 C 31.48137283325195 1.999992370605469 27.01797485351562 2.900886535644531 22.8172721862793 4.677627563476562 C 18.75887298583984 6.394187927246094 15.11363983154297 8.852008819580078 11.98281860351562 11.98281860351562 C 8.852008819580078 15.11363983154297 6.394187927246094 18.75887298583984 4.677627563476562 22.8172721862793 C 2.900886535644531 27.01797485351562 1.999992370605469 31.48137283325195 1.999992370605469 36.08349609375 C 1.999992370605469 40.68561553955078 2.900886535644531 45.14901733398438 4.677627563476562 49.34971618652344 C 6.394187927246094 53.40811920166016 8.852008819580078 57.05335235595703 11.98281860351562 60.18417358398438 C 15.11363983154297 63.31498718261719 18.75887298583984 65.77280426025391 22.8172721862793 67.48936462402344 C 27.01797485351562 69.26610565185547 31.48137283325195 70.16699981689453 36.08349609375 70.16699981689453 C 40.68561553955078 70.16699981689453 45.14901733398438 69.26610565185547 49.34971618652344 67.48936462402344 C 53.40811920166016 65.77280426025391 57.05335235595703 63.31498718261719 60.18417358398438 60.18417358398438 C 63.31498718261719 57.05335235595703 65.77280426025391 53.40811920166016 67.48936462402344 49.34971618652344 C 69.26610565185547 45.14901733398438 70.16699981689453 40.68561553955078 70.16699981689453 36.08349609375 C 70.16699981689453 31.48137283325195 69.26610565185547 27.01797485351562 67.48936462402344 22.8172721862793 C 65.77280426025391 18.75887298583984 63.31498718261719 15.11363983154297 60.18417358398438 11.98281860351562 C 57.05335235595703 8.852008819580078 53.40811920166016 6.394187927246094 49.34971618652344 4.677627563476562 C 45.14901733398438 2.900886535644531 40.68561553955078 1.999992370605469 36.08349609375 1.999992370605469 M 36.08349609375 -7.62939453125e-06 C 56.01186370849609 -7.62939453125e-06 72.16699981689453 16.15512847900391 72.16699981689453 36.08349609375 C 72.16699981689453 56.01186370849609 56.01186370849609 72.16699981689453 36.08349609375 72.16699981689453 C 16.15512847900391 72.16699981689453 -7.62939453125e-06 56.01186370849609 -7.62939453125e-06 36.08349609375 C -7.62939453125e-06 16.15512847900391 16.15512847900391 -7.62939453125e-06 36.08349609375 -7.62939453125e-06 Z" stroke="none" fill="#fb5012"/>
    </g>
    <g id="visibility" transform="translate(177.457 3100.317)">
      <g id="Group_12487" data-name="Group 12487" transform="translate(8 176.667)">
        <g id="Group_12486" data-name="Group 12486" transform="translate(0 0)">
          <path id="Path_8560" data-name="Path 8560" d="M175.474,170.667a4.807,4.807,0,1,0,4.807,4.807A4.811,4.811,0,0,0,175.474,170.667Z" transform="translate(-157.848 -163.456)" fill="#fb5012"/>
          <path id="Path_8561" data-name="Path 8561" d="M17.627,74.667A18.951,18.951,0,0,0,0,86.685a18.935,18.935,0,0,0,35.253,0A18.943,18.943,0,0,0,17.627,74.667Zm0,20.03a8.012,8.012,0,1,1,8.012-8.012A8.015,8.015,0,0,1,17.627,94.7Z" transform="translate(0 -74.667)" fill="#800020"/>
        </g>
      </g>
    </g>
  </g>
</svg>
