<svg xmlns="http://www.w3.org/2000/svg" width="72.167" height="72.167" viewBox="0 0 72.167 72.167">
  <g id="Group_12523" data-name="Group 12523" transform="translate(-207 -6231.258)">
    <g id="Path_8513" data-name="Path 8513" transform="translate(207 6231.258)" fill="none">
      <path d="M36.083,0A36.083,36.083,0,1,1,0,36.083,36.083,36.083,0,0,1,36.083,0Z" stroke="none"/>
      <path d="M 36.08349609375 1.999992370605469 C 31.48137283325195 1.999992370605469 27.01797485351562 2.900886535644531 22.8172721862793 4.677627563476562 C 18.75887298583984 6.394187927246094 15.11363983154297 8.852008819580078 11.98281860351562 11.98281860351562 C 8.852008819580078 15.11363983154297 6.394187927246094 18.75887298583984 4.677627563476562 22.8172721862793 C 2.900886535644531 27.01797485351562 1.999992370605469 31.48137283325195 1.999992370605469 36.08349609375 C 1.999992370605469 40.68561553955078 2.900886535644531 45.14901733398438 4.677627563476562 49.34971618652344 C 6.394187927246094 53.40811920166016 8.852008819580078 57.05335235595703 11.98281860351562 60.18417358398438 C 15.11363983154297 63.31498718261719 18.75887298583984 65.77280426025391 22.8172721862793 67.48936462402344 C 27.01797485351562 69.26610565185547 31.48137283325195 70.16699981689453 36.08349609375 70.16699981689453 C 40.68561553955078 70.16699981689453 45.14901733398438 69.26610565185547 49.34971618652344 67.48936462402344 C 53.40811920166016 65.77280426025391 57.05335235595703 63.31498718261719 60.18417358398438 60.18417358398438 C 63.31498718261719 57.05335235595703 65.77280426025391 53.40811920166016 67.48936462402344 49.34971618652344 C 69.26610565185547 45.14901733398438 70.16699981689453 40.68561553955078 70.16699981689453 36.08349609375 C 70.16699981689453 31.48137283325195 69.26610565185547 27.01797485351562 67.48936462402344 22.8172721862793 C 65.77280426025391 18.75887298583984 63.31498718261719 15.11363983154297 60.18417358398438 11.98281860351562 C 57.05335235595703 8.852008819580078 53.40811920166016 6.394187927246094 49.34971618652344 4.677627563476562 C 45.14901733398438 2.900886535644531 40.68561553955078 1.999992370605469 36.08349609375 1.999992370605469 M 36.08349609375 -7.62939453125e-06 C 56.01186370849609 -7.62939453125e-06 72.16699981689453 16.15512847900391 72.16699981689453 36.08349609375 C 72.16699981689453 56.01186370849609 56.01186370849609 72.16699981689453 36.08349609375 72.16699981689453 C 16.15512847900391 72.16699981689453 -7.62939453125e-06 56.01186370849609 -7.62939453125e-06 36.08349609375 C -7.62939453125e-06 16.15512847900391 16.15512847900391 -7.62939453125e-06 36.08349609375 -7.62939453125e-06 Z" stroke="none" fill="#fb5012"/>
    </g>
    <g id="heart-in-hands" transform="translate(186.966 6225.108)">
      <g id="icons_19_" transform="translate(37.367 28.135)">
        <g id="Group_12463" data-name="Group 12463" transform="translate(0)">
          <path id="Path_8529" data-name="Path 8529" d="M69.624,320.266c-2.022,1.959-9.533,3.963-14.677,3.834a.671.671,0,1,1,.064-1.33,25.926,25.926,0,0,0,7.838-.92,8.634,8.634,0,0,0,3.269-1.085,1.965,1.965,0,0,0-1.08-3.455c-2.428-.5-6.016.05-8.237.05s-3.075-1.557-6.277-1.344a39.531,39.531,0,0,0-7.767,1.191v-.195a1.719,1.719,0,0,0-1.677-1.757H39.045a1.718,1.718,0,0,0-1.677,1.757v9.727a1.718,1.718,0,0,0,1.677,1.757h2.034a1.718,1.718,0,0,0,1.677-1.757v-.174c1.621,1.039,7.325,4.358,13.92,4.289,7.816-.082,17.932-6.673,18.179-9.388S71.645,318.307,69.624,320.266Z" transform="translate(-37.368 -302.658)" fill="#fb5012"/>
          <path id="Path_8531" data-name="Path 8531" d="M179.626,176.925a4.325,4.325,0,0,0-3.028,1.232,4.34,4.34,0,0,0-6.577,5.608,4.167,4.167,0,0,0,.709.84l4.5,4.51c.451.451.9.9,1.353.9h.023c.451,0,.9-.451,1.353-.9l4.5-4.51a4.162,4.162,0,0,0,.709-.84,4.34,4.34,0,0,0-3.549-6.84Z" transform="translate(-157.222 -176.925)" fill="#800020"/>
        </g>
      </g>
    </g>
  </g>
</svg>
