<svg xmlns="http://www.w3.org/2000/svg" width="72.167" height="72.167" viewBox="0 0 72.167 72.167">
  <g id="Group_13148" data-name="Group 13148" transform="translate(-207 -6371.86)">
    <g id="Group_12527" data-name="Group 12527" transform="translate(0 459.175)">
      <g id="Path_8511" data-name="Path 8511" transform="translate(207 5912.686)" fill="none">
        <path d="M36.083,0A36.083,36.083,0,1,1,0,36.083,36.083,36.083,0,0,1,36.083,0Z" stroke="none"/>
        <path d="M 36.08349609375 1.999992370605469 C 31.48137283325195 1.999992370605469 27.01797485351562 2.900886535644531 22.8172721862793 4.677627563476562 C 18.75887298583984 6.394187927246094 15.11363983154297 8.852008819580078 11.98281860351562 11.98281860351562 C 8.852008819580078 15.11363983154297 6.394187927246094 18.75887298583984 4.677627563476562 22.8172721862793 C 2.900886535644531 27.01797485351562 1.999992370605469 31.48137283325195 1.999992370605469 36.08349609375 C 1.999992370605469 40.68561553955078 2.900886535644531 45.14901733398438 4.677627563476562 49.34971618652344 C 6.394187927246094 53.40811920166016 8.852008819580078 57.05335235595703 11.98281860351562 60.18417358398438 C 15.11363983154297 63.31498718261719 18.75887298583984 65.77280426025391 22.8172721862793 67.48936462402344 C 27.01797485351562 69.26610565185547 31.48137283325195 70.16699981689453 36.08349609375 70.16699981689453 C 40.68561553955078 70.16699981689453 45.14901733398438 69.26610565185547 49.34971618652344 67.48936462402344 C 53.40811920166016 65.77280426025391 57.05335235595703 63.31498718261719 60.18417358398438 60.18417358398438 C 63.31498718261719 57.05335235595703 65.77280426025391 53.40811920166016 67.48936462402344 49.34971618652344 C 69.26610565185547 45.14901733398438 70.16699981689453 40.68561553955078 70.16699981689453 36.08349609375 C 70.16699981689453 31.48137283325195 69.26610565185547 27.01797485351562 67.48936462402344 22.8172721862793 C 65.77280426025391 18.75887298583984 63.31498718261719 15.11363983154297 60.18417358398438 11.98281860351562 C 57.05335235595703 8.852008819580078 53.40811920166016 6.394187927246094 49.34971618652344 4.677627563476562 C 45.14901733398438 2.900886535644531 40.68561553955078 1.999992370605469 36.08349609375 1.999992370605469 M 36.08349609375 -7.62939453125e-06 C 56.01186370849609 -7.62939453125e-06 72.16699981689453 16.15512847900391 72.16699981689453 36.08349609375 C 72.16699981689453 56.01186370849609 56.01186370849609 72.16699981689453 36.08349609375 72.16699981689453 C 16.15512847900391 72.16699981689453 -7.62939453125e-06 56.01186370849609 -7.62939453125e-06 36.08349609375 C -7.62939453125e-06 16.15512847900391 16.15512847900391 -7.62939453125e-06 36.08349609375 -7.62939453125e-06 Z" stroke="none" fill="#fb5012"/>
      </g>
    </g>
    <g id="identify" transform="translate(225.493 6390.354)">
      <path id="Path_8964" data-name="Path 8964" d="M252.418,268.766l-7.5-13.6a2.061,2.061,0,0,0-3.61,0l-7.5,13.6a2.061,2.061,0,0,0,1.8,3.057h15A2.061,2.061,0,0,0,252.418,268.766Zm-9.307-.035a1.031,1.031,0,1,1,1.031-1.031A1.031,1.031,0,0,1,243.111,268.731Zm1.031-4.466a1.031,1.031,0,0,1-2.061,0V259.8a1.031,1.031,0,1,1,2.061,0Z" transform="translate(-217.498 -236.643)" fill="#800020"/>
      <path id="Path_8965" data-name="Path 8965" d="M177.792,21.6l1.555-2.818a7.91,7.91,0,1,1,7.06-2.318,4.118,4.118,0,0,1,.848,1.069l.87,1.577a10.992,10.992,0,1,0-10.333,2.49Z" transform="translate(-158.052)" fill="#fb5012"/>
      <path id="Path_8966" data-name="Path 8966" d="M250.84,75a5.84,5.84,0,0,0-.184,11.676,4.119,4.119,0,0,1,3.922-1.353A5.838,5.838,0,0,0,250.84,75Z" transform="translate(-228.166 -69.847)" fill="#800020"/>
      <path id="Path_8967" data-name="Path 8967" d="M11.823,265.46,1.646,273.311a4.229,4.229,0,1,0,5.932,5.932l7.847-10.173a13.122,13.122,0,0,1-3.6-3.61ZM4.154,277.765a1.031,1.031,0,1,1,1.031-1.031A1.031,1.031,0,0,1,4.154,277.765Z" transform="translate(0 -247.22)" fill="#fb5012"/>
    </g>
  </g>
</svg>
