<svg xmlns="http://www.w3.org/2000/svg" width="72.167" height="72.167" viewBox="0 0 72.167 72.167">
  <g id="Group_12497" data-name="Group 12497" transform="translate(-780 -3356.993)">
    <g id="Path_8549" data-name="Path 8549" transform="translate(780 3356.993)" fill="none">
      <path d="M36.083,0A36.083,36.083,0,1,1,0,36.083,36.083,36.083,0,0,1,36.083,0Z" stroke="none"/>
      <path d="M 36.08349609375 1.999992370605469 C 31.48137283325195 1.999992370605469 27.01797485351562 2.900886535644531 22.8172721862793 4.677627563476562 C 18.75887298583984 6.394187927246094 15.11363983154297 8.852008819580078 11.98281860351562 11.98281860351562 C 8.852008819580078 15.11363983154297 6.394187927246094 18.75887298583984 4.677627563476562 22.8172721862793 C 2.900886535644531 27.01797485351562 1.999992370605469 31.48137283325195 1.999992370605469 36.08349609375 C 1.999992370605469 40.68561553955078 2.900886535644531 45.14901733398438 4.677627563476562 49.34971618652344 C 6.394187927246094 53.40811920166016 8.852008819580078 57.05335235595703 11.98281860351562 60.18417358398438 C 15.11363983154297 63.31498718261719 18.75887298583984 65.77280426025391 22.8172721862793 67.48936462402344 C 27.01797485351562 69.26610565185547 31.48137283325195 70.16699981689453 36.08349609375 70.16699981689453 C 40.68561553955078 70.16699981689453 45.14901733398438 69.26610565185547 49.34971618652344 67.48936462402344 C 53.40811920166016 65.77280426025391 57.05335235595703 63.31498718261719 60.18417358398438 60.18417358398438 C 63.31498718261719 57.05335235595703 65.77280426025391 53.40811920166016 67.48936462402344 49.34971618652344 C 69.26610565185547 45.14901733398438 70.16699981689453 40.68561553955078 70.16699981689453 36.08349609375 C 70.16699981689453 31.48137283325195 69.26610565185547 27.01797485351562 67.48936462402344 22.8172721862793 C 65.77280426025391 18.75887298583984 63.31498718261719 15.11363983154297 60.18417358398438 11.98281860351562 C 57.05335235595703 8.852008819580078 53.40811920166016 6.394187927246094 49.34971618652344 4.677627563476562 C 45.14901733398438 2.900886535644531 40.68561553955078 1.999992370605469 36.08349609375 1.999992370605469 M 36.08349609375 -7.62939453125e-06 C 56.01186370849609 -7.62939453125e-06 72.16699981689453 16.15512847900391 72.16699981689453 36.08349609375 C 72.16699981689453 56.01186370849609 56.01186370849609 72.16699981689453 36.08349609375 72.16699981689453 C 16.15512847900391 72.16699981689453 -7.62939453125e-06 56.01186370849609 -7.62939453125e-06 36.08349609375 C -7.62939453125e-06 16.15512847900391 16.15512847900391 -7.62939453125e-06 36.08349609375 -7.62939453125e-06 Z" stroke="none" fill="#fb5012"/>
    </g>
    <g id="chat" transform="translate(799.109 3376.101)">
      <path id="Path_8579" data-name="Path 8579" d="M142.616,138.6a1.146,1.146,0,0,1,.8.322,5.318,5.318,0,0,0,5.245,1.236,10.162,10.162,0,0,1-.424-7.786,13.373,13.373,0,0,0,.126-9.639,12.362,12.362,0,0,0-6.021-6.522,14.819,14.819,0,0,1-16.513,17.4,12.583,12.583,0,0,0,10.707,6.317,12.41,12.41,0,0,0,5.588-1.216A1.144,1.144,0,0,1,142.616,138.6Z" transform="translate(-115.254 -106.443)" fill="#fb5012"/>
      <path id="Path_8580" data-name="Path 8580" d="M12.781,0A12.553,12.553,0,0,0,0,12.472a12.4,12.4,0,0,0,.988,4.907c.01.023.018.045.027.069A10.162,10.162,0,0,1,.59,25.234,5.318,5.318,0,0,0,5.836,24a1.147,1.147,0,0,1,1.291-.21A12.393,12.393,0,0,0,12.714,25,12.414,12.414,0,0,0,25.047,12.5,12.577,12.577,0,0,0,12.781,0ZM5.843,14.37a1.81,1.81,0,1,1,1.813-1.81A1.812,1.812,0,0,1,5.843,14.37Zm6.68,0a1.81,1.81,0,1,1,1.813-1.81A1.812,1.812,0,0,1,12.523,14.37Zm6.68,0a1.81,1.81,0,1,1,1.813-1.81A1.812,1.812,0,0,1,19.2,14.37Z" transform="translate(0 0)" fill="#800020"/>
    </g>
  </g>
</svg>
