<svg xmlns="http://www.w3.org/2000/svg" width="72.167" height="72.167" viewBox="0 0 72.167 72.167">
  <g id="Group_12524" data-name="Group 12524" transform="translate(-207 -6074.472)">
    <g id="Path_8512" data-name="Path 8512" transform="translate(207 6074.472)" fill="none">
      <path d="M36.083,0A36.083,36.083,0,1,1,0,36.083,36.083,36.083,0,0,1,36.083,0Z" stroke="none"/>
      <path d="M 36.08349609375 1.999992370605469 C 31.48137283325195 1.999992370605469 27.01797485351562 2.900886535644531 22.8172721862793 4.677627563476562 C 18.75887298583984 6.394187927246094 15.11363983154297 8.852008819580078 11.98281860351562 11.98281860351562 C 8.852008819580078 15.11363983154297 6.394187927246094 18.75887298583984 4.677627563476562 22.8172721862793 C 2.900886535644531 27.01797485351562 1.999992370605469 31.48137283325195 1.999992370605469 36.08349609375 C 1.999992370605469 40.68561553955078 2.900886535644531 45.14901733398438 4.677627563476562 49.34971618652344 C 6.394187927246094 53.40811920166016 8.852008819580078 57.05335235595703 11.98281860351562 60.18417358398438 C 15.11363983154297 63.31498718261719 18.75887298583984 65.77280426025391 22.8172721862793 67.48936462402344 C 27.01797485351562 69.26610565185547 31.48137283325195 70.16699981689453 36.08349609375 70.16699981689453 C 40.68561553955078 70.16699981689453 45.14901733398438 69.26610565185547 49.34971618652344 67.48936462402344 C 53.40811920166016 65.77280426025391 57.05335235595703 63.31498718261719 60.18417358398438 60.18417358398438 C 63.31498718261719 57.05335235595703 65.77280426025391 53.40811920166016 67.48936462402344 49.34971618652344 C 69.26610565185547 45.14901733398438 70.16699981689453 40.68561553955078 70.16699981689453 36.08349609375 C 70.16699981689453 31.48137283325195 69.26610565185547 27.01797485351562 67.48936462402344 22.8172721862793 C 65.77280426025391 18.75887298583984 63.31498718261719 15.11363983154297 60.18417358398438 11.98281860351562 C 57.05335235595703 8.852008819580078 53.40811920166016 6.394187927246094 49.34971618652344 4.677627563476562 C 45.14901733398438 2.900886535644531 40.68561553955078 1.999992370605469 36.08349609375 1.999992370605469 M 36.08349609375 -7.62939453125e-06 C 56.01186370849609 -7.62939453125e-06 72.16699981689453 16.15512847900391 72.16699981689453 36.08349609375 C 72.16699981689453 56.01186370849609 56.01186370849609 72.16699981689453 36.08349609375 72.16699981689453 C 16.15512847900391 72.16699981689453 -7.62939453125e-06 56.01186370849609 -7.62939453125e-06 36.08349609375 C -7.62939453125e-06 16.15512847900391 16.15512847900391 -7.62939453125e-06 36.08349609375 -7.62939453125e-06 Z" stroke="none" fill="#fb5012"/>
    </g>
    <g id="determination" transform="translate(223.508 6090.98)">
      <path id="Path_8515" data-name="Path 8515" d="M241,0h2.294V4.664H241Z" transform="translate(-222.572)" fill="#800020"/>
      <path id="Path_8516" data-name="Path 8516" d="M0,241H4.664v2.294H0Z" transform="translate(0 -222.572)" fill="#800020"/>
      <path id="Path_8517" data-name="Path 8517" d="M451,241h4.664v2.294H451Z" transform="translate(-416.514 -222.572)" fill="#800020"/>
      <path id="Path_8518" data-name="Path 8518" d="M0,0H2.294V4.587H0Z" transform="translate(4.976 6.599) rotate(-45)" fill="#800020"/>
      <path id="Path_8519" data-name="Path 8519" d="M0,0H4.587V2.294H0Z" transform="translate(29.304 8.223) rotate(-45)" fill="#800020"/>
      <path id="Path_8520" data-name="Path 8520" d="M166,451h14.911v4.664H166Z" transform="translate(-153.307 -416.514)" fill="#800020"/>
      <path id="Path_8521" data-name="Path 8521" d="M289.441,128.455V122.72a1.72,1.72,0,0,0-3.441,0v5.735a1.72,1.72,0,0,0,3.441,0Z" transform="translate(-264.131 -111.748)" fill="#fb5012"/>
      <path id="Path_8522" data-name="Path 8522" d="M364.441,152.72a1.72,1.72,0,0,0-3.441,0v3.441a1.72,1.72,0,0,0,3.441,0Z" transform="translate(-333.396 -139.454)" fill="#fb5012"/>
      <path id="Path_8523" data-name="Path 8523" d="M128.939,217.882v-2.707a3.918,3.918,0,0,1-4.588-.8,3.966,3.966,0,0,1-2.867,1.216,3.9,3.9,0,0,1-2.959-1.331,4.644,4.644,0,0,1-2.569,3.189,5.688,5.688,0,0,1,1.514,3.877h-2.294a3.453,3.453,0,0,0-3.441-3.441h-1.147v-2.294h3.441a2.3,2.3,0,0,0,2.294-2.294A2.389,2.389,0,0,0,114.029,211h-4.588A3.436,3.436,0,0,0,106,214.441v3.441c0,4.313,2.631,7.9,5.23,9.061l.229.115H124.7l.3-.184C125.154,226.759,128.939,224.167,128.939,217.882Z" transform="translate(-97.895 -194.866)" fill="#fb5012"/>
      <path id="Path_8524" data-name="Path 8524" d="M211,122.72v2.867a4.559,4.559,0,0,1,3.441,1.585V122.72a1.72,1.72,0,0,0-3.441,0Z" transform="translate(-194.866 -111.748)" fill="#fb5012"/>
      <path id="Path_8525" data-name="Path 8525" d="M139.441,125.588V122.72a1.72,1.72,0,0,0-3.441,0V125.7a5.733,5.733,0,0,1,1.147-.116Z" transform="translate(-125.601 -111.748)" fill="#fb5012"/>
    </g>
  </g>
</svg>
