<svg xmlns="http://www.w3.org/2000/svg" width="72.167" height="72.167" viewBox="0 0 72.167 72.167">
  <g id="Group_12526" data-name="Group 12526" transform="translate(-778 -5916.418)">
    <g id="Path_8532" data-name="Path 8532" transform="translate(778 5916.418)" fill="none">
      <path d="M36.083,0A36.083,36.083,0,1,1,0,36.083,36.083,36.083,0,0,1,36.083,0Z" stroke="none"/>
      <path d="M 36.08349609375 1.999992370605469 C 31.48137283325195 1.999992370605469 27.01797485351562 2.900886535644531 22.8172721862793 4.677627563476562 C 18.75887298583984 6.394187927246094 15.11363983154297 8.852008819580078 11.98281860351562 11.98281860351562 C 8.852008819580078 15.11363983154297 6.394187927246094 18.75887298583984 4.677627563476562 22.8172721862793 C 2.900886535644531 27.01797485351562 1.999992370605469 31.48137283325195 1.999992370605469 36.08349609375 C 1.999992370605469 40.68561553955078 2.900886535644531 45.14901733398438 4.677627563476562 49.34971618652344 C 6.394187927246094 53.40811920166016 8.852008819580078 57.05335235595703 11.98281860351562 60.18417358398438 C 15.11363983154297 63.31498718261719 18.75887298583984 65.77280426025391 22.8172721862793 67.48936462402344 C 27.01797485351562 69.26610565185547 31.48137283325195 70.16699981689453 36.08349609375 70.16699981689453 C 40.68561553955078 70.16699981689453 45.14901733398438 69.26610565185547 49.34971618652344 67.48936462402344 C 53.40811920166016 65.77280426025391 57.05335235595703 63.31498718261719 60.18417358398438 60.18417358398438 C 63.31498718261719 57.05335235595703 65.77280426025391 53.40811920166016 67.48936462402344 49.34971618652344 C 69.26610565185547 45.14901733398438 70.16699981689453 40.68561553955078 70.16699981689453 36.08349609375 C 70.16699981689453 31.48137283325195 69.26610565185547 27.01797485351562 67.48936462402344 22.8172721862793 C 65.77280426025391 18.75887298583984 63.31498718261719 15.11363983154297 60.18417358398438 11.98281860351562 C 57.05335235595703 8.852008819580078 53.40811920166016 6.394187927246094 49.34971618652344 4.677627563476562 C 45.14901733398438 2.900886535644531 40.68561553955078 1.999992370605469 36.08349609375 1.999992370605469 M 36.08349609375 -7.62939453125e-06 C 56.01186370849609 -7.62939453125e-06 72.16699981689453 16.15512847900391 72.16699981689453 36.08349609375 C 72.16699981689453 56.01186370849609 56.01186370849609 72.16699981689453 36.08349609375 72.16699981689453 C 16.15512847900391 72.16699981689453 -7.62939453125e-06 56.01186370849609 -7.62939453125e-06 36.08349609375 C -7.62939453125e-06 16.15512847900391 16.15512847900391 -7.62939453125e-06 36.08349609375 -7.62939453125e-06 Z" stroke="none" fill="#fb5012"/>
    </g>
    <g id="vector_1_" data-name="vector (1)" transform="translate(795.102 5933.521)">
      <g id="Group_12465" data-name="Group 12465">
        <g id="Group_12464" data-name="Group 12464">
          <path id="Path_8534" data-name="Path 8534" d="M36.85,0H32.4a1.112,1.112,0,0,0-1.112,1.112V2.224H22.126a3.336,3.336,0,0,0-6.29,0H6.673V1.112A1.112,1.112,0,0,0,5.561,0H1.112A1.112,1.112,0,0,0,0,1.112V5.561A1.112,1.112,0,0,0,1.112,6.673H5.561A1.112,1.112,0,0,0,6.673,5.561V4.434H11.3A14.611,14.611,0,0,0,4.553,15.826a3.335,3.335,0,1,0,2.229.022,12.418,12.418,0,0,1,9.211-11.03,3.335,3.335,0,0,0,5.977,0,12.418,12.418,0,0,1,9.211,11.03,3.338,3.338,0,1,0,2.229-.022A14.585,14.585,0,0,0,26.664,4.449h4.625V5.561A1.112,1.112,0,0,0,32.4,6.673H36.85a1.112,1.112,0,0,0,1.112-1.112V1.112A1.112,1.112,0,0,0,36.85,0ZM4.449,4.449H2.224V2.224H4.449ZM5.635,20.093a1.112,1.112,0,1,1,1.112-1.112A1.113,1.113,0,0,1,5.635,20.093ZM18.981,4.449a1.112,1.112,0,1,1,1.112-1.112A1.113,1.113,0,0,1,18.981,4.449Zm13.346,13.42a1.112,1.112,0,1,1-1.112,1.112A1.113,1.113,0,0,1,32.327,17.869Zm3.411-13.42H33.513V2.224h2.224Z" fill="#800020"/>
        </g>
      </g>
      <g id="Group_12467" data-name="Group 12467" transform="translate(8.971 8.972)">
        <g id="Group_12466" data-name="Group 12466">
          <path id="Path_8535" data-name="Path 8535" d="M140.832,134.851l-8.9-13.346h0l-.01-.014c-.015-.022-.031-.044-.048-.064a1.112,1.112,0,0,0-1.781.064l-.01.014h0l-8.9,13.346a1.112,1.112,0,0,0,.139,1.4,14.09,14.09,0,0,1,4.016,8.223,5.727,5.727,0,0,0-.5.451,5.637,5.637,0,0,0-1.62,3.96A1.112,1.112,0,0,0,124.337,150h13.346a1.112,1.112,0,0,0,1.112-1.112,5.638,5.638,0,0,0-1.62-3.96,5.731,5.731,0,0,0-.5-.451,14.089,14.089,0,0,1,4.016-8.223A1.112,1.112,0,0,0,140.832,134.851Zm-9.823-.5a1.112,1.112,0,1,1-1.112,1.112A1.113,1.113,0,0,1,131.01,134.356Zm-5.371,13.42a3.4,3.4,0,0,1,3.147-2.3h4.449a3.4,3.4,0,0,1,3.147,2.3Zm8.948-4.354a5.464,5.464,0,0,0-1.353-.169h-4.449a5.46,5.46,0,0,0-1.353.169,16.32,16.32,0,0,0-3.9-8.074l6.369-9.553v6.528a3.337,3.337,0,1,0,2.224,0v-6.528l6.369,9.553A16.318,16.318,0,0,0,134.587,143.422Z" transform="translate(-121 -121.01)" fill="#fb5012"/>
        </g>
      </g>
    </g>
  </g>
</svg>
