<svg xmlns="http://www.w3.org/2000/svg" width="72.167" height="72.167" viewBox="0 0 72.167 72.167">
  <g id="Group_12489" data-name="Group 12489" transform="translate(-167 -3148.993)">
    <g id="Path_8543" data-name="Path 8543" transform="translate(167 3148.993)" fill="none">
      <path d="M36.083,0A36.083,36.083,0,1,1,0,36.083,36.083,36.083,0,0,1,36.083,0Z" stroke="none"/>
      <path d="M 36.08349609375 1.999992370605469 C 31.48137283325195 1.999992370605469 27.01797485351562 2.900886535644531 22.8172721862793 4.677627563476562 C 18.75887298583984 6.394187927246094 15.11363983154297 8.852008819580078 11.98281860351562 11.98281860351562 C 8.852008819580078 15.11363983154297 6.394187927246094 18.75887298583984 4.677627563476562 22.8172721862793 C 2.900886535644531 27.01797485351562 1.999992370605469 31.48137283325195 1.999992370605469 36.08349609375 C 1.999992370605469 40.68561553955078 2.900886535644531 45.14901733398438 4.677627563476562 49.34971618652344 C 6.394187927246094 53.40811920166016 8.852008819580078 57.05335235595703 11.98281860351562 60.18417358398438 C 15.11363983154297 63.31498718261719 18.75887298583984 65.77280426025391 22.8172721862793 67.48936462402344 C 27.01797485351562 69.26610565185547 31.48137283325195 70.16699981689453 36.08349609375 70.16699981689453 C 40.68561553955078 70.16699981689453 45.14901733398438 69.26610565185547 49.34971618652344 67.48936462402344 C 53.40811920166016 65.77280426025391 57.05335235595703 63.31498718261719 60.18417358398438 60.18417358398438 C 63.31498718261719 57.05335235595703 65.77280426025391 53.40811920166016 67.48936462402344 49.34971618652344 C 69.26610565185547 45.14901733398438 70.16699981689453 40.68561553955078 70.16699981689453 36.08349609375 C 70.16699981689453 31.48137283325195 69.26610565185547 27.01797485351562 67.48936462402344 22.8172721862793 C 65.77280426025391 18.75887298583984 63.31498718261719 15.11363983154297 60.18417358398438 11.98281860351562 C 57.05335235595703 8.852008819580078 53.40811920166016 6.394187927246094 49.34971618652344 4.677627563476562 C 45.14901733398438 2.900886535644531 40.68561553955078 1.999992370605469 36.08349609375 1.999992370605469 M 36.08349609375 -7.62939453125e-06 C 56.01186370849609 -7.62939453125e-06 72.16699981689453 16.15512847900391 72.16699981689453 36.08349609375 C 72.16699981689453 56.01186370849609 56.01186370849609 72.16699981689453 36.08349609375 72.16699981689453 C 16.15512847900391 72.16699981689453 -7.62939453125e-06 56.01186370849609 -7.62939453125e-06 36.08349609375 C -7.62939453125e-06 16.15512847900391 16.15512847900391 -7.62939453125e-06 36.08349609375 -7.62939453125e-06 Z" stroke="none" fill="#fb5012"/>
    </g>
    <g id="team" transform="translate(183.772 3171.499)">
      <path id="Path_8554" data-name="Path 8554" d="M165.855,202.5a7.363,7.363,0,0,0-7.355,7.355v4.526h14.71v-4.526A7.363,7.363,0,0,0,165.855,202.5Zm0,0" transform="translate(-146.543 -187.225)" fill="#800020"/>
      <path id="Path_8555" data-name="Path 8555" d="M198.684,72.592a5.092,5.092,0,1,0-5.092,5.092A5.1,5.1,0,0,0,198.684,72.592Zm0,0" transform="translate(-174.28 -62.408)" fill="#800020"/>
      <path id="Path_8556" data-name="Path 8556" d="M41.184,5.092a5.092,5.092,0,1,0-5.092,5.092A5.1,5.1,0,0,0,41.184,5.092Zm0,0" transform="translate(-28.661)" fill="#fb5012"/>
      <path id="Path_8557" data-name="Path 8557" d="M331.311,135a7.356,7.356,0,0,0-6.706,4.366,9.6,9.6,0,0,1,4.443,8.081h9.693v-5.092A7.428,7.428,0,0,0,331.311,135Zm0,0" transform="translate(-300.119 -124.816)" fill="#fb5012"/>
      <path id="Path_8558" data-name="Path 8558" d="M356.184,5.092a5.092,5.092,0,1,0-5.092,5.092A5.1,5.1,0,0,0,356.184,5.092Zm0,0" transform="translate(-319.899)" fill="#fb5012"/>
      <path id="Path_8559" data-name="Path 8559" d="M14.136,139.366A7.392,7.392,0,0,0,0,142.355v5.092H9.694A9.6,9.6,0,0,1,14.136,139.366Zm0,0" transform="translate(0 -124.816)" fill="#fb5012"/>
    </g>
  </g>
</svg>
