<svg xmlns="http://www.w3.org/2000/svg" width="72.167" height="72.167" viewBox="0 0 72.167 72.167">
  <g id="Group_12492" data-name="Group 12492" transform="translate(-167 -3460.993)">
    <g id="Path_8545" data-name="Path 8545" transform="translate(167 3460.993)" fill="none">
      <path d="M36.083,0A36.083,36.083,0,1,1,0,36.083,36.083,36.083,0,0,1,36.083,0Z" stroke="none"/>
      <path d="M 36.08349609375 1.999992370605469 C 31.48137283325195 1.999992370605469 27.01797485351562 2.900886535644531 22.8172721862793 4.677627563476562 C 18.75887298583984 6.394187927246094 15.11363983154297 8.852008819580078 11.98281860351562 11.98281860351562 C 8.852008819580078 15.11363983154297 6.394187927246094 18.75887298583984 4.677627563476562 22.8172721862793 C 2.900886535644531 27.01797485351562 1.999992370605469 31.48137283325195 1.999992370605469 36.08349609375 C 1.999992370605469 40.68561553955078 2.900886535644531 45.14901733398438 4.677627563476562 49.34971618652344 C 6.394187927246094 53.40811920166016 8.852008819580078 57.05335235595703 11.98281860351562 60.18417358398438 C 15.11363983154297 63.31498718261719 18.75887298583984 65.77280426025391 22.8172721862793 67.48936462402344 C 27.01797485351562 69.26610565185547 31.48137283325195 70.16699981689453 36.08349609375 70.16699981689453 C 40.68561553955078 70.16699981689453 45.14901733398438 69.26610565185547 49.34971618652344 67.48936462402344 C 53.40811920166016 65.77280426025391 57.05335235595703 63.31498718261719 60.18417358398438 60.18417358398438 C 63.31498718261719 57.05335235595703 65.77280426025391 53.40811920166016 67.48936462402344 49.34971618652344 C 69.26610565185547 45.14901733398438 70.16699981689453 40.68561553955078 70.16699981689453 36.08349609375 C 70.16699981689453 31.48137283325195 69.26610565185547 27.01797485351562 67.48936462402344 22.8172721862793 C 65.77280426025391 18.75887298583984 63.31498718261719 15.11363983154297 60.18417358398438 11.98281860351562 C 57.05335235595703 8.852008819580078 53.40811920166016 6.394187927246094 49.34971618652344 4.677627563476562 C 45.14901733398438 2.900886535644531 40.68561553955078 1.999992370605469 36.08349609375 1.999992370605469 M 36.08349609375 -7.62939453125e-06 C 56.01186370849609 -7.62939453125e-06 72.16699981689453 16.15512847900391 72.16699981689453 36.08349609375 C 72.16699981689453 56.01186370849609 56.01186370849609 72.16699981689453 36.08349609375 72.16699981689453 C 16.15512847900391 72.16699981689453 -7.62939453125e-06 56.01186370849609 -7.62939453125e-06 36.08349609375 C -7.62939453125e-06 16.15512847900391 16.15512847900391 -7.62939453125e-06 36.08349609375 -7.62939453125e-06 Z" stroke="none" fill="#fb5012"/>
    </g>
    <g id="shield" transform="translate(127.021 3477.302)">
      <path id="Path_8564" data-name="Path 8564" d="M159.111,150a8.111,8.111,0,1,0,8.111,8.111A8.12,8.12,0,0,0,159.111,150Zm5.454,6.613-6.18,6.18a1.159,1.159,0,0,1-1.639,0l-3.09-3.09a1.159,1.159,0,1,1,1.639-1.639l2.27,2.271,5.36-5.36a1.159,1.159,0,0,1,1.639,1.639Z" transform="translate(-83.048 -138.413)" fill="#fb5012"/>
      <path id="Path_8565" data-name="Path 8565" d="M89.966,6.18A17.375,17.375,0,0,1,77.6,1.057L76.882.34a1.159,1.159,0,0,0-1.639,0l-.718.718A17.375,17.375,0,0,1,62.159,6.18,1.159,1.159,0,0,0,61,7.339V18.9a21.784,21.784,0,0,0,14.685,20.59,1.16,1.16,0,0,0,.755,0A21.784,21.784,0,0,0,91.125,18.9V7.339A1.159,1.159,0,0,0,89.966,6.18Zm-13.9,23.946A10.428,10.428,0,1,1,86.491,19.7,10.44,10.44,0,0,1,76.063,30.126Z" transform="translate(0 0)" fill="#800020"/>
    </g>
  </g>
</svg>
