<svg xmlns="http://www.w3.org/2000/svg" width="38.419" height="50.438" viewBox="0 0 38.419 50.438">
  <g id="shield_1_" data-name="shield (1)" transform="translate(-61 0)">
    <path id="Path_8648" data-name="Path 8648" d="M161.344,150a10.344,10.344,0,1,0,10.344,10.344A10.355,10.355,0,0,0,161.344,150Zm6.956,8.433-7.881,7.881a1.478,1.478,0,0,1-2.09,0l-3.94-3.94a1.478,1.478,0,0,1,2.09-2.09l2.9,2.9,6.836-6.836a1.478,1.478,0,1,1,2.09,2.09Z" transform="translate(-81.134 -135.223)" fill="#800020"/>
    <path id="Path_8649" data-name="Path 8649" d="M97.942,7.881A22.159,22.159,0,0,1,82.17,1.348L81.255.433a1.478,1.478,0,0,0-2.09,0l-.915.915A22.159,22.159,0,0,1,62.478,7.881,1.478,1.478,0,0,0,61,9.359V24.1A27.782,27.782,0,0,0,79.728,50.358a1.479,1.479,0,0,0,.962,0A27.782,27.782,0,0,0,99.419,24.1V9.359a1.478,1.478,0,0,0-1.478-1.478ZM80.21,38.42a13.3,13.3,0,1,1,13.3-13.3A13.314,13.314,0,0,1,80.21,38.42Z" transform="translate(0 0)" fill="#fb5012"/>
  </g>
</svg>
