<svg xmlns="http://www.w3.org/2000/svg" width="72.167" height="72.167" viewBox="0 0 72.167 72.167">
  <g id="Group_12529" data-name="Group 12529" transform="translate(-207 -5748.9)">
    <g id="Group_12528" data-name="Group 12528">
      <g id="Path_8452" data-name="Path 8452" transform="translate(207 5748.9)" fill="none">
        <path d="M36.083,0A36.083,36.083,0,1,1,0,36.083,36.083,36.083,0,0,1,36.083,0Z" stroke="none"/>
        <path d="M 36.08349609375 1.999992370605469 C 31.48137283325195 1.999992370605469 27.01797485351562 2.900886535644531 22.8172721862793 4.677627563476562 C 18.75887298583984 6.394187927246094 15.11363983154297 8.852008819580078 11.98281860351562 11.98281860351562 C 8.852008819580078 15.11363983154297 6.394187927246094 18.75887298583984 4.677627563476562 22.8172721862793 C 2.900886535644531 27.01797485351562 1.999992370605469 31.48137283325195 1.999992370605469 36.08349609375 C 1.999992370605469 40.68561553955078 2.900886535644531 45.14901733398438 4.677627563476562 49.34971618652344 C 6.394187927246094 53.40811920166016 8.852008819580078 57.05335235595703 11.98281860351562 60.18417358398438 C 15.11363983154297 63.31498718261719 18.75887298583984 65.77280426025391 22.8172721862793 67.48936462402344 C 27.01797485351562 69.26610565185547 31.48137283325195 70.16699981689453 36.08349609375 70.16699981689453 C 40.68561553955078 70.16699981689453 45.14901733398438 69.26610565185547 49.34971618652344 67.48936462402344 C 53.40811920166016 65.77280426025391 57.05335235595703 63.31498718261719 60.18417358398438 60.18417358398438 C 63.31498718261719 57.05335235595703 65.77280426025391 53.40811920166016 67.48936462402344 49.34971618652344 C 69.26610565185547 45.14901733398438 70.16699981689453 40.68561553955078 70.16699981689453 36.08349609375 C 70.16699981689453 31.48137283325195 69.26610565185547 27.01797485351562 67.48936462402344 22.8172721862793 C 65.77280426025391 18.75887298583984 63.31498718261719 15.11363983154297 60.18417358398438 11.98281860351562 C 57.05335235595703 8.852008819580078 53.40811920166016 6.394187927246094 49.34971618652344 4.677627563476562 C 45.14901733398438 2.900886535644531 40.68561553955078 1.999992370605469 36.08349609375 1.999992370605469 M 36.08349609375 -7.62939453125e-06 C 56.01186370849609 -7.62939453125e-06 72.16699981689453 16.15512847900391 72.16699981689453 36.08349609375 C 72.16699981689453 56.01186370849609 56.01186370849609 72.16699981689453 36.08349609375 72.16699981689453 C 16.15512847900391 72.16699981689453 -7.62939453125e-06 56.01186370849609 -7.62939453125e-06 36.08349609375 C -7.62939453125e-06 16.15512847900391 16.15512847900391 -7.62939453125e-06 36.08349609375 -7.62939453125e-06 Z" stroke="none" fill="#fb5012"/>
      </g>
      <g id="eye-recognition" transform="translate(223.771 5765.67)">
        <g id="Group_12453" data-name="Group 12453" transform="translate(19.021 2.668)">
          <path id="Path_8485" data-name="Path 8485" d="M31.792,7a.292.292,0,0,1-.292-.292V3.792a.292.292,0,1,1,.584,0v2.92A.292.292,0,0,1,31.792,7Z" transform="translate(-31.5 -3.5)"/>
        </g>
        <g id="Group_12454" data-name="Group 12454" transform="translate(2.084 9.677)">
          <path id="Path_8486" data-name="Path 8486" d="M4.836,18.128a.293.293,0,0,1-.207-.085L2.585,16A.292.292,0,1,1,3,15.586L5.042,17.63a.292.292,0,0,1-.206.5Z" transform="translate(-2.5 -15.501)" fill="#fb5012"/>
        </g>
        <g id="Group_12455" data-name="Group 12455" transform="translate(19.021 2.668)">
          <path id="Path_8487" data-name="Path 8487" d="M31.792,7a.292.292,0,0,1-.292-.292V3.792a.292.292,0,1,1,.584,0v2.92A.292.292,0,0,1,31.792,7Z" transform="translate(-31.5 -3.5)" fill="#fb5012"/>
        </g>
        <g id="Group_12456" data-name="Group 12456" transform="translate(33.913 9.677)">
          <path id="Path_8488" data-name="Path 8488" d="M57.292,18.128a.292.292,0,0,1-.207-.5l2.044-2.044a.292.292,0,0,1,.413.413L57.5,18.043A.291.291,0,0,1,57.292,18.128Z" transform="translate(-57 -15.501)" fill="#fb5012"/>
        </g>
        <g id="Group_12457" data-name="Group 12457" transform="translate(19.021 32.454)">
          <path id="Path_8489" data-name="Path 8489" d="M31.792,58a.292.292,0,0,1-.292-.292v-2.92a.292.292,0,1,1,.584,0v2.92A.292.292,0,0,1,31.792,58Z" transform="translate(-31.5 -54.5)"/>
        </g>
        <g id="Group_12458" data-name="Group 12458" transform="translate(2.084 26.322)">
          <path id="Path_8490" data-name="Path 8490" d="M2.792,46.628a.292.292,0,0,1-.207-.5l2.044-2.044a.292.292,0,0,1,.413.413L3,46.543a.291.291,0,0,1-.206.085Z" transform="translate(-2.5 -44.001)" fill="#fb5012"/>
        </g>
        <g id="Group_12459" data-name="Group 12459" transform="translate(19.021 32.454)">
          <path id="Path_8491" data-name="Path 8491" d="M31.792,58a.292.292,0,0,1-.292-.292v-2.92a.292.292,0,1,1,.584,0v2.92A.292.292,0,0,1,31.792,58Z" transform="translate(-31.5 -54.5)" fill="#fb5012"/>
        </g>
        <g id="Group_12460" data-name="Group 12460" transform="translate(33.913 26.322)">
          <path id="Path_8492" data-name="Path 8492" d="M59.336,46.628a.293.293,0,0,1-.207-.085L57.085,44.5a.292.292,0,0,1,.413-.413l2.044,2.044a.292.292,0,0,1-.206.5Z" transform="translate(-57 -44.001)" fill="#fb5012"/>
        </g>
        <g id="Group_12461" data-name="Group 12461" transform="translate(1.5 1.5)">
          <path id="Path_8493" data-name="Path 8493" d="M21.844,18.5c-8.911,0-13.57,6.8-14.258,7.884.688,1.086,5.347,7.884,14.258,7.884s13.57-6.8,14.258-7.884C35.415,25.3,30.756,18.5,21.844,18.5Zm0,13.433a5.548,5.548,0,1,1,5.548-5.548A5.555,5.555,0,0,1,21.844,31.933Z" transform="translate(-4.032 -8.572)" fill="#800020"/>
          <path id="Path_8494" data-name="Path 8494" d="M3.252,3.544a.292.292,0,0,1,.292-.292h3.8V1.5H1.5V7.34H3.252Z" transform="translate(-1.5 -1.5)" fill="#fb5012"/>
          <path id="Path_8495" data-name="Path 8495" d="M28.464,23.5a4.964,4.964,0,1,0,4.964,4.964A4.97,4.97,0,0,0,28.464,23.5Zm0,7.592a2.631,2.631,0,0,1-2.628-2.628,2.593,2.593,0,0,1,.276-1.17.291.291,0,0,1,.233-.16.283.283,0,0,1,.259.113.875.875,0,0,0,1.568-.535.85.85,0,0,0-.112-.43.292.292,0,0,1,.221-.438,1.6,1.6,0,0,1,.183-.008,2.628,2.628,0,0,1,0,5.256Z" transform="translate(-10.651 -10.651)" fill="#800020"/>
          <path id="Path_8496" data-name="Path 8496" d="M30.811,28.53a1.523,1.523,0,0,1,.025.274,1.457,1.457,0,0,1-2.265,1.216,2.044,2.044,0,1,0,2.24-1.49Z" transform="translate(-12.731 -12.744)" fill="#800020"/>
          <path id="Path_8497" data-name="Path 8497" d="M4.264,24.279a.287.287,0,0,0,.256.15H5.683c.694-1.1,5.511-8.176,14.764-8.176s14.07,7.075,14.764,8.176h1.163a.291.291,0,0,0,.248-.447C34.85,21.131,29.728,14.5,20.447,14.5s-14.4,6.631-16.175,9.482a.286.286,0,0,0-.008.3Z" transform="translate(-2.634 -6.908)" fill="#800020"/>
          <path id="Path_8498" data-name="Path 8498" d="M7.34,56.588h-3.8a.292.292,0,0,1-.292-.292V52.5H1.5v5.84H7.34Z" transform="translate(-1.5 -22.715)" fill="#fb5012"/>
          <path id="Path_8499" data-name="Path 8499" d="M56.588,56.3a.292.292,0,0,1-.292.292H52.5V58.34h5.84V52.5H56.588Z" transform="translate(-22.715 -22.715)" fill="#fb5012"/>
          <path id="Path_8500" data-name="Path 8500" d="M52.5,3.252h3.8a.292.292,0,0,1,.292.292v3.8H58.34V1.5H52.5Z" transform="translate(-22.715 -1.5)" fill="#fb5012"/>
        </g>
      </g>
    </g>
  </g>
</svg>
