<svg xmlns="http://www.w3.org/2000/svg" width="72.167" height="72.167" viewBox="0 0 72.167 72.167">
  <g id="Group_12496" data-name="Group 12496" transform="translate(-780 -3460.993)">
    <g id="Path_8551" data-name="Path 8551" transform="translate(780 3460.993)" fill="none">
      <path d="M36.083,0A36.083,36.083,0,1,1,0,36.083,36.083,36.083,0,0,1,36.083,0Z" stroke="none"/>
      <path d="M 36.08349609375 1.999992370605469 C 31.48137283325195 1.999992370605469 27.01797485351562 2.900886535644531 22.8172721862793 4.677627563476562 C 18.75887298583984 6.394187927246094 15.11363983154297 8.852008819580078 11.98281860351562 11.98281860351562 C 8.852008819580078 15.11363983154297 6.394187927246094 18.75887298583984 4.677627563476562 22.8172721862793 C 2.900886535644531 27.01797485351562 1.999992370605469 31.48137283325195 1.999992370605469 36.08349609375 C 1.999992370605469 40.68561553955078 2.900886535644531 45.14901733398438 4.677627563476562 49.34971618652344 C 6.394187927246094 53.40811920166016 8.852008819580078 57.05335235595703 11.98281860351562 60.18417358398438 C 15.11363983154297 63.31498718261719 18.75887298583984 65.77280426025391 22.8172721862793 67.48936462402344 C 27.01797485351562 69.26610565185547 31.48137283325195 70.16699981689453 36.08349609375 70.16699981689453 C 40.68561553955078 70.16699981689453 45.14901733398438 69.26610565185547 49.34971618652344 67.48936462402344 C 53.40811920166016 65.77280426025391 57.05335235595703 63.31498718261719 60.18417358398438 60.18417358398438 C 63.31498718261719 57.05335235595703 65.77280426025391 53.40811920166016 67.48936462402344 49.34971618652344 C 69.26610565185547 45.14901733398438 70.16699981689453 40.68561553955078 70.16699981689453 36.08349609375 C 70.16699981689453 31.48137283325195 69.26610565185547 27.01797485351562 67.48936462402344 22.8172721862793 C 65.77280426025391 18.75887298583984 63.31498718261719 15.11363983154297 60.18417358398438 11.98281860351562 C 57.05335235595703 8.852008819580078 53.40811920166016 6.394187927246094 49.34971618652344 4.677627563476562 C 45.14901733398438 2.900886535644531 40.68561553955078 1.999992370605469 36.08349609375 1.999992370605469 M 36.08349609375 -7.62939453125e-06 C 56.01186370849609 -7.62939453125e-06 72.16699981689453 16.15512847900391 72.16699981689453 36.08349609375 C 72.16699981689453 56.01186370849609 56.01186370849609 72.16699981689453 36.08349609375 72.16699981689453 C 16.15512847900391 72.16699981689453 -7.62939453125e-06 56.01186370849609 -7.62939453125e-06 36.08349609375 C -7.62939453125e-06 16.15512847900391 16.15512847900391 -7.62939453125e-06 36.08349609375 -7.62939453125e-06 Z" stroke="none" fill="#fb5012"/>
    </g>
    <path id="_24-7" data-name="24-7" d="M7.019,7.467a.984.984,0,0,0,.892.568H12.7V9.726a.984.984,0,1,0,1.969,0V8.035h.453a.984.984,0,0,0,0-1.969h-.453V.159a.984.984,0,0,0-1.739-.632L7.156,6.419a.984.984,0,0,0-.137,1.048Zm5.679-4.6v3.2H10.019Zm4.982,20.91,5.157-8.051h-3.8a.984.984,0,1,1,0-1.969h5.6a.984.984,0,0,1,.829,1.515L19.337,24.84a.984.984,0,1,1-1.658-1.062ZM22.832,5.69a.984.984,0,0,1,0,1.392L8.322,21.592A.984.984,0,1,1,6.929,20.2L21.44,5.69a.984.984,0,0,1,1.392,0ZM5.567,3.627A1.794,1.794,0,0,0,5.1,1.584a2.313,2.313,0,0,0-2.379-.2,1.4,1.4,0,0,0-.707,1.5.984.984,0,1,1-1.96.188A3.343,3.343,0,0,1,1.777-.345,4.3,4.3,0,0,1,6.319.04,3.733,3.733,0,0,1,7.466,4.146C7.158,5.274,6.1,6.1,4.882,7.05A18.25,18.25,0,0,0,2.915,8.742H6.993a.984.984,0,0,1,0,1.969H1A.984.984,0,0,1,.118,9.3,11.453,11.453,0,0,1,3.671,5.5c.866-.676,1.76-1.374,1.9-1.871ZM31.5,15.027a15.75,15.75,0,1,1-31.5,0,.984.984,0,0,1,1.969,0A13.781,13.781,0,1,0,17.55,1.362.984.984,0,1,1,17.8-.59,15.752,15.752,0,0,1,31.5,15.027Z" transform="translate(800.334 3482.101)" fill="#800020"/>
  </g>
</svg>
