<svg xmlns="http://www.w3.org/2000/svg" width="72.167" height="72.167" viewBox="0 0 72.167 72.167">
  <g id="Group_12498" data-name="Group 12498" transform="translate(-780 -3252.993)">
    <g id="Path_8550" data-name="Path 8550" transform="translate(780 3252.993)" fill="none">
      <path d="M36.083,0A36.083,36.083,0,1,1,0,36.083,36.083,36.083,0,0,1,36.083,0Z" stroke="none"/>
      <path d="M 36.08349609375 1.999992370605469 C 31.48137283325195 1.999992370605469 27.01797485351562 2.900886535644531 22.8172721862793 4.677627563476562 C 18.75887298583984 6.394187927246094 15.11363983154297 8.852008819580078 11.98281860351562 11.98281860351562 C 8.852008819580078 15.11363983154297 6.394187927246094 18.75887298583984 4.677627563476562 22.8172721862793 C 2.900886535644531 27.01797485351562 1.999992370605469 31.48137283325195 1.999992370605469 36.08349609375 C 1.999992370605469 40.68561553955078 2.900886535644531 45.14901733398438 4.677627563476562 49.34971618652344 C 6.394187927246094 53.40811920166016 8.852008819580078 57.05335235595703 11.98281860351562 60.18417358398438 C 15.11363983154297 63.31498718261719 18.75887298583984 65.77280426025391 22.8172721862793 67.48936462402344 C 27.01797485351562 69.26610565185547 31.48137283325195 70.16699981689453 36.08349609375 70.16699981689453 C 40.68561553955078 70.16699981689453 45.14901733398438 69.26610565185547 49.34971618652344 67.48936462402344 C 53.40811920166016 65.77280426025391 57.05335235595703 63.31498718261719 60.18417358398438 60.18417358398438 C 63.31498718261719 57.05335235595703 65.77280426025391 53.40811920166016 67.48936462402344 49.34971618652344 C 69.26610565185547 45.14901733398438 70.16699981689453 40.68561553955078 70.16699981689453 36.08349609375 C 70.16699981689453 31.48137283325195 69.26610565185547 27.01797485351562 67.48936462402344 22.8172721862793 C 65.77280426025391 18.75887298583984 63.31498718261719 15.11363983154297 60.18417358398438 11.98281860351562 C 57.05335235595703 8.852008819580078 53.40811920166016 6.394187927246094 49.34971618652344 4.677627563476562 C 45.14901733398438 2.900886535644531 40.68561553955078 1.999992370605469 36.08349609375 1.999992370605469 M 36.08349609375 -7.62939453125e-06 C 56.01186370849609 -7.62939453125e-06 72.16699981689453 16.15512847900391 72.16699981689453 36.08349609375 C 72.16699981689453 56.01186370849609 56.01186370849609 72.16699981689453 36.08349609375 72.16699981689453 C 16.15512847900391 72.16699981689453 -7.62939453125e-06 56.01186370849609 -7.62939453125e-06 36.08349609375 C -7.62939453125e-06 16.15512847900391 16.15512847900391 -7.62939453125e-06 36.08349609375 -7.62939453125e-06 Z" stroke="none" fill="#fb5012"/>
    </g>
    <path id="technology" d="M21.218,29.954v4.16A1.387,1.387,0,0,1,19.831,35.5H17.057a4.165,4.165,0,0,1-4.16-4.16v-.7a.463.463,0,0,0-.295-.424l-.018-.008-.007,0a.464.464,0,0,0-.51.091l-.494.494a4.165,4.165,0,0,1-5.884,0l-.981-.981a4.16,4.16,0,0,1,0-5.884l.494-.494a.465.465,0,0,0,.091-.51L5.282,22.9a.462.462,0,0,0-.423-.293h-.7A4.165,4.165,0,0,1,0,18.444V17.057A4.165,4.165,0,0,1,4.16,12.9h.7a.463.463,0,0,0,.424-.295l.011-.025a.465.465,0,0,0-.091-.51l-.494-.494a4.16,4.16,0,0,1,0-5.884l.98-.98a4.16,4.16,0,0,1,5.884,0l.494.494a.465.465,0,0,0,.51.091l.007,0,.023-.009a.462.462,0,0,0,.29-.422v-.7A4.165,4.165,0,0,1,17.058,0h2.774a1.387,1.387,0,0,1,1.387,1.387v4.16a1.387,1.387,0,0,1-2.774,0V2.774H17.058A1.388,1.388,0,0,0,15.671,4.16v.7a3.228,3.228,0,0,1-2.01,2.988l-.022.009a3.229,3.229,0,0,1-3.533-.692L9.612,6.67a1.386,1.386,0,0,0-1.961,0l-.981.98a1.387,1.387,0,0,0,0,1.961l.494.494a3.229,3.229,0,0,1,.691,3.535l-.008.019a3.229,3.229,0,0,1-2.989,2.011h-.7a1.388,1.388,0,0,0-1.387,1.387v1.387A1.388,1.388,0,0,0,4.16,19.831h.7a3.228,3.228,0,0,1,2.988,2.01l.01.024A3.228,3.228,0,0,1,7.164,25.4l-.494.494a1.387,1.387,0,0,0,0,1.961l.981.981a1.389,1.389,0,0,0,1.961,0l.494-.494a3.23,3.23,0,0,1,3.533-.692l.018.007a3.229,3.229,0,0,1,2.014,2.989v.7a1.388,1.388,0,0,0,1.387,1.387h1.387V29.954a1.387,1.387,0,1,1,2.774,0Zm11.857-14.63a2.424,2.424,0,0,0-1.991,1.04H20.3a2.427,2.427,0,1,0,0,2.774H31.084a2.427,2.427,0,1,0,1.991-3.814Zm0,11.372a2.438,2.438,0,0,0-.5.053L29.195,23.42a1.387,1.387,0,0,0-.974-.4H17.751a5.27,5.27,0,0,1,0-10.539h10.47a1.386,1.386,0,0,0,.98-.406l3.387-3.387a2.425,2.425,0,1,0-1.913-2.009L27.646,9.707h-9.9a8.043,8.043,0,0,0,0,16.087h9.9l3.021,2.979a2.427,2.427,0,1,0,2.4-2.078Zm0,0" transform="translate(798.333 3271.326)" fill="#800020"/>
  </g>
</svg>
