<svg xmlns="http://www.w3.org/2000/svg" width="72.167" height="72.167" viewBox="0 0 72.167 72.167">
  <g id="Group_12491" data-name="Group 12491" transform="translate(-167 -3356.993)">
    <g id="Path_8546" data-name="Path 8546" transform="translate(167 3356.993)" fill="none">
      <path d="M36.083,0A36.083,36.083,0,1,1,0,36.083,36.083,36.083,0,0,1,36.083,0Z" stroke="none"/>
      <path d="M 36.08349609375 1.999992370605469 C 31.48137283325195 1.999992370605469 27.01797485351562 2.900886535644531 22.8172721862793 4.677627563476562 C 18.75887298583984 6.394187927246094 15.11363983154297 8.852008819580078 11.98281860351562 11.98281860351562 C 8.852008819580078 15.11363983154297 6.394187927246094 18.75887298583984 4.677627563476562 22.8172721862793 C 2.900886535644531 27.01797485351562 1.999992370605469 31.48137283325195 1.999992370605469 36.08349609375 C 1.999992370605469 40.68561553955078 2.900886535644531 45.14901733398438 4.677627563476562 49.34971618652344 C 6.394187927246094 53.40811920166016 8.852008819580078 57.05335235595703 11.98281860351562 60.18417358398438 C 15.11363983154297 63.31498718261719 18.75887298583984 65.77280426025391 22.8172721862793 67.48936462402344 C 27.01797485351562 69.26610565185547 31.48137283325195 70.16699981689453 36.08349609375 70.16699981689453 C 40.68561553955078 70.16699981689453 45.14901733398438 69.26610565185547 49.34971618652344 67.48936462402344 C 53.40811920166016 65.77280426025391 57.05335235595703 63.31498718261719 60.18417358398438 60.18417358398438 C 63.31498718261719 57.05335235595703 65.77280426025391 53.40811920166016 67.48936462402344 49.34971618652344 C 69.26610565185547 45.14901733398438 70.16699981689453 40.68561553955078 70.16699981689453 36.08349609375 C 70.16699981689453 31.48137283325195 69.26610565185547 27.01797485351562 67.48936462402344 22.8172721862793 C 65.77280426025391 18.75887298583984 63.31498718261719 15.11363983154297 60.18417358398438 11.98281860351562 C 57.05335235595703 8.852008819580078 53.40811920166016 6.394187927246094 49.34971618652344 4.677627563476562 C 45.14901733398438 2.900886535644531 40.68561553955078 1.999992370605469 36.08349609375 1.999992370605469 M 36.08349609375 -7.62939453125e-06 C 56.01186370849609 -7.62939453125e-06 72.16699981689453 16.15512847900391 72.16699981689453 36.08349609375 C 72.16699981689453 56.01186370849609 56.01186370849609 72.16699981689453 36.08349609375 72.16699981689453 C 16.15512847900391 72.16699981689453 -7.62939453125e-06 56.01186370849609 -7.62939453125e-06 36.08349609375 C -7.62939453125e-06 16.15512847900391 16.15512847900391 -7.62939453125e-06 36.08349609375 -7.62939453125e-06 Z" stroke="none" fill="#fb5012"/>
    </g>
    <g id="quality" transform="translate(187.041 3377.034)">
      <path id="Path_8562" data-name="Path 8562" d="M30.738,9.452l-3.276-1.96-.738-3.055a2.814,2.814,0,0,0-2.959-2.15l-3.748.29L17.871.677a2.81,2.81,0,0,0-3.657,0l-2.147,1.9-3.748-.29A2.8,2.8,0,0,0,5.394,4.326L4.31,7.7,1.347,9.451A2.808,2.808,0,0,0,.216,12.93l1.279,3.1-1.278,3.1a2.806,2.806,0,0,0,1.13,3.478l3.272,1.946.741,3.069a2.814,2.814,0,0,0,2.959,2.15l3.708-.286,2.187,1.923a2.807,2.807,0,0,0,3.657,0l2.187-1.923,3.708.286a2.793,2.793,0,0,0,2.959-2.15l.738-3.055,3.276-1.96a2.809,2.809,0,0,0,1.13-3.478l-1.279-3.1,1.28-3.1a2.807,2.807,0,0,0-1.131-3.477Zm-14.7,16.93a10.34,10.34,0,1,1,10.34-10.34A10.352,10.352,0,0,1,16.042,26.382Z" transform="translate(0 0)" fill="#fb5012"/>
      <path id="Path_8563" data-name="Path 8563" d="M129.46,121a8.46,8.46,0,1,0,8.46,8.46A8.469,8.469,0,0,0,129.46,121Zm5.365,6.3-5.64,5.64a.939.939,0,0,1-1.329,0l-3.76-3.76a.94.94,0,0,1,1.329-1.329l3.1,3.1,4.975-4.975a.94.94,0,1,1,1.329,1.329Z" transform="translate(-113.418 -113.418)" fill="#800020"/>
    </g>
  </g>
</svg>
